<?xml version="1.0" encoding="utf-8" ?>
<svg baseProfile="full" height="100%" version="1.1" width="100%" xmlns="http://www.w3.org/2000/svg" xmlns:ev="http://www.w3.org/2001/xml-events" xmlns:xlink="http://www.w3.org/1999/xlink"><defs /><text x="25" y="35">b</text><line stroke="rgb(10%,10%,16%)" x1="20" x2="40" y1="20" y2="20" /><line stroke="rgb(10%,10%,16%)" x1="20" x2="20" y1="20" y2="40" /><text x="45" y="35">a</text><line stroke="rgb(10%,10%,16%)" x1="40" x2="60" y1="20" y2="20" /><text x="65" y="35">9</text><line stroke="rgb(10%,10%,16%)" x1="60" x2="80" y1="20" y2="20" /><text x="85" y="35">8</text><line stroke="rgb(10%,10%,16%)" x1="80" x2="100" y1="20" y2="20" /><line stroke="rgb(10%,10%,16%)" x1="80" x2="100" y1="40" y2="40" /><text x="105" y="35">7</text><line stroke="rgb(10%,10%,16%)" x1="100" x2="120" y1="20" y2="20" /><line stroke="rgb(10%,10%,16%)" x1="100" x2="120" y1="40" y2="40" /><text x="125" y="35">6</text><line stroke="rgb(10%,10%,16%)" x1="120" x2="140" y1="20" y2="20" /><line stroke="rgb(10%,10%,16%)" x1="120" x2="140" y1="40" y2="40" /><text x="145" y="35">5</text><line stroke="rgb(10%,10%,16%)" x1="140" x2="160" y1="20" y2="20" /><text x="165" y="35">4</text><line stroke="rgb(10%,10%,16%)" x1="160" x2="180" y1="20" y2="20" /><line stroke="rgb(10%,10%,16%)" x1="160" x2="180" y1="40" y2="40" /><text x="185" y="35">3</text><line stroke="rgb(10%,10%,16%)" x1="180" x2="200" y1="20" y2="20" /><line stroke="rgb(10%,10%,16%)" x1="180" x2="200" y1="40" y2="40" /><text x="205" y="35">2</text><line stroke="rgb(10%,10%,16%)" x1="200" x2="220" y1="20" y2="20" /><line stroke="rgb(10%,10%,16%)" x1="200" x2="220" y1="40" y2="40" /><text x="225" y="35">1</text><line stroke="rgb(10%,10%,16%)" x1="220" x2="240" y1="20" y2="20" /><line stroke="rgb(10%,10%,16%)" x1="220" x2="240" y1="40" y2="40" /><text x="245" y="35">0</text><line stroke="rgb(10%,10%,16%)" x1="240" x2="260" y1="20" y2="20" /><line stroke="rgb(10%,10%,16%)" x1="260" x2="260" y1="20" y2="40" /><text x="25" y="55">c</text><line stroke="rgb(10%,10%,16%)" x1="20" x2="20" y1="40" y2="60" /><line stroke="rgb(10%,10%,16%)" x1="40" x2="40" y1="40" y2="60" /><text x="45" y="55">b</text><line stroke="rgb(10%,10%,16%)" x1="60" x2="60" y1="40" y2="60" /><line stroke="rgb(10%,10%,16%)" x1="40" x2="60" y1="60" y2="60" /><text x="65" y="55">a</text><line stroke="rgb(10%,10%,16%)" x1="80" x2="80" y1="40" y2="60" /><line stroke="rgb(10%,10%,16%)" x1="60" x2="80" y1="60" y2="60" /><text x="85" y="55">9</text><text x="105" y="55">8</text><line stroke="rgb(10%,10%,16%)" x1="100" x2="120" y1="60" y2="60" /><text x="125" y="55">7</text><line stroke="rgb(10%,10%,16%)" x1="120" x2="140" y1="60" y2="60" /><text x="145" y="55">6</text><line stroke="rgb(10%,10%,16%)" x1="160" x2="160" y1="40" y2="60" /><line stroke="rgb(10%,10%,16%)" x1="140" x2="160" y1="60" y2="60" /><text x="165" y="55">5</text><line stroke="rgb(10%,10%,16%)" x1="160" x2="180" y1="60" y2="60" /><text x="185" y="55">4</text><text x="205" y="55">3</text><line stroke="rgb(10%,10%,16%)" x1="200" x2="220" y1="60" y2="60" /><text x="225" y="55">2</text><text x="245" y="55">1</text><line stroke="rgb(10%,10%,16%)" x1="260" x2="260" y1="40" y2="60" /><text x="25" y="75">d</text><line stroke="rgb(10%,10%,16%)" x1="20" x2="20" y1="60" y2="80" /><line stroke="rgb(10%,10%,16%)" x1="40" x2="40" y1="60" y2="80" /><text x="45" y="75">c</text><line stroke="rgb(10%,10%,16%)" x1="40" x2="60" y1="80" y2="80" /><text x="65" y="75">b</text><text x="85" y="75">a</text><line stroke="rgb(10%,10%,16%)" x1="100" x2="100" y1="60" y2="80" /><text x="105" y="75">9</text><text x="125" y="75">8</text><line stroke="rgb(10%,10%,16%)" x1="120" x2="140" y1="80" y2="80" /><text x="145" y="75">7</text><text x="165" y="75">6</text><line stroke="rgb(10%,10%,16%)" x1="160" x2="180" y1="80" y2="80" /><text x="185" y="75">5</text><line stroke="rgb(10%,10%,16%)" x1="200" x2="200" y1="60" y2="80" /><line stroke="rgb(10%,10%,16%)" x1="180" x2="200" y1="80" y2="80" /><text x="205" y="75">4</text><text x="225" y="75">3</text><line stroke="rgb(10%,10%,16%)" x1="240" x2="240" y1="60" y2="80" /><text x="245" y="75">2</text><line stroke="rgb(10%,10%,16%)" x1="260" x2="260" y1="60" y2="80" /><text x="25" y="95">e</text><line stroke="rgb(10%,10%,16%)" x1="20" x2="20" y1="80" y2="100" /><line stroke="rgb(10%,10%,16%)" x1="40" x2="40" y1="80" y2="100" /><line stroke="rgb(10%,10%,16%)" x1="20" x2="40" y1="100" y2="100" /><text x="45" y="95">d</text><line stroke="rgb(10%,10%,16%)" x1="40" x2="60" y1="100" y2="100" /><text x="65" y="95">c</text><line stroke="rgb(10%,10%,16%)" x1="80" x2="80" y1="80" y2="100" /><text x="85" y="95">b</text><line stroke="rgb(10%,10%,16%)" x1="100" x2="100" y1="80" y2="100" /><text x="105" y="95">a</text><line stroke="rgb(10%,10%,16%)" x1="120" x2="120" y1="80" y2="100" /><line stroke="rgb(10%,10%,16%)" x1="100" x2="120" y1="100" y2="100" /><text x="125" y="95">9</text><text x="145" y="95">8</text><line stroke="rgb(10%,10%,16%)" x1="160" x2="160" y1="80" y2="100" /><line stroke="rgb(10%,10%,16%)" x1="140" x2="160" y1="100" y2="100" /><text x="165" y="95">7</text><text x="185" y="95">6</text><text x="205" y="95">5</text><line stroke="rgb(10%,10%,16%)" x1="220" x2="220" y1="80" y2="100" /><line stroke="rgb(10%,10%,16%)" x1="200" x2="220" y1="100" y2="100" /><text x="225" y="95">4</text><line stroke="rgb(10%,10%,16%)" x1="240" x2="240" y1="80" y2="100" /><text x="245" y="95">3</text><line stroke="rgb(10%,10%,16%)" x1="260" x2="260" y1="80" y2="100" /><text x="25" y="115">f</text><line stroke="rgb(10%,10%,16%)" x1="20" x2="20" y1="100" y2="120" /><text x="45" y="115">e</text><line stroke="rgb(10%,10%,16%)" x1="40" x2="60" y1="120" y2="120" /><text x="65" y="115">d</text><line stroke="rgb(10%,10%,16%)" x1="80" x2="80" y1="100" y2="120" /><text x="85" y="115">c</text><line stroke="rgb(10%,10%,16%)" x1="100" x2="100" y1="100" y2="120" /><line stroke="rgb(10%,10%,16%)" x1="80" x2="100" y1="120" y2="120" /><text x="105" y="115">b</text><text x="125" y="115">a</text><line stroke="rgb(10%,10%,16%)" x1="140" x2="140" y1="100" y2="120" /><text x="145" y="115">9</text><line stroke="rgb(10%,10%,16%)" x1="140" x2="160" y1="120" y2="120" /><text x="165" y="115">8</text><line stroke="rgb(10%,10%,16%)" x1="180" x2="180" y1="100" y2="120" /><text x="185" y="115">7</text><line stroke="rgb(10%,10%,16%)" x1="200" x2="200" y1="100" y2="120" /><text x="205" y="115">6</text><line stroke="rgb(10%,10%,16%)" x1="200" x2="220" y1="120" y2="120" /><text x="225" y="115">5</text><line stroke="rgb(10%,10%,16%)" x1="240" x2="240" y1="100" y2="120" /><line stroke="rgb(10%,10%,16%)" x1="220" x2="240" y1="120" y2="120" /><text x="245" y="115">4</text><line stroke="rgb(10%,10%,16%)" x1="260" x2="260" y1="100" y2="120" /><text x="25" y="135">g</text><line stroke="rgb(10%,10%,16%)" x1="20" x2="20" y1="120" y2="140" /><line stroke="rgb(10%,10%,16%)" x1="40" x2="40" y1="120" y2="140" /><line stroke="rgb(10%,10%,16%)" x1="20" x2="40" y1="140" y2="140" /><text x="45" y="135">f</text><line stroke="rgb(10%,10%,16%)" x1="40" x2="60" y1="140" y2="140" /><text x="65" y="135">e</text><line stroke="rgb(10%,10%,16%)" x1="80" x2="80" y1="120" y2="140" /><text x="85" y="135">d</text><line stroke="rgb(10%,10%,16%)" x1="80" x2="100" y1="140" y2="140" /><text x="105" y="135">c</text><line stroke="rgb(10%,10%,16%)" x1="120" x2="120" y1="120" y2="140" /><text x="125" y="135">b</text><line stroke="rgb(10%,10%,16%)" x1="140" x2="140" y1="120" y2="140" /><text x="145" y="135">a</text><text x="165" y="135">9</text><line stroke="rgb(10%,10%,16%)" x1="180" x2="180" y1="120" y2="140" /><text x="185" y="135">8</text><line stroke="rgb(10%,10%,16%)" x1="200" x2="200" y1="120" y2="140" /><line stroke="rgb(10%,10%,16%)" x1="180" x2="200" y1="140" y2="140" /><text x="205" y="135">7</text><line stroke="rgb(10%,10%,16%)" x1="200" x2="220" y1="140" y2="140" /><text x="225" y="135">6</text><text x="245" y="135">5</text><line stroke="rgb(10%,10%,16%)" x1="260" x2="260" y1="120" y2="140" /><text x="25" y="155">h</text><line stroke="rgb(10%,10%,16%)" x1="20" x2="20" y1="140" y2="160" /><text x="45" y="155">g</text><line stroke="rgb(10%,10%,16%)" x1="40" x2="60" y1="160" y2="160" /><text x="65" y="155">f</text><line stroke="rgb(10%,10%,16%)" x1="80" x2="80" y1="140" y2="160" /><line stroke="rgb(10%,10%,16%)" x1="60" x2="80" y1="160" y2="160" /><text x="85" y="155">e</text><line stroke="rgb(10%,10%,16%)" x1="80" x2="100" y1="160" y2="160" /><text x="105" y="155">d</text><line stroke="rgb(10%,10%,16%)" x1="120" x2="120" y1="140" y2="160" /><line stroke="rgb(10%,10%,16%)" x1="100" x2="120" y1="160" y2="160" /><text x="125" y="155">c</text><line stroke="rgb(10%,10%,16%)" x1="140" x2="140" y1="140" y2="160" /><line stroke="rgb(10%,10%,16%)" x1="120" x2="140" y1="160" y2="160" /><text x="145" y="155">b</text><line stroke="rgb(10%,10%,16%)" x1="160" x2="160" y1="140" y2="160" /><text x="165" y="155">a</text><line stroke="rgb(10%,10%,16%)" x1="180" x2="180" y1="140" y2="160" /><text x="185" y="155">9</text><text x="205" y="155">8</text><line stroke="rgb(10%,10%,16%)" x1="200" x2="220" y1="160" y2="160" /><text x="225" y="155">7</text><line stroke="rgb(10%,10%,16%)" x1="240" x2="240" y1="140" y2="160" /><text x="245" y="155">6</text><line stroke="rgb(10%,10%,16%)" x1="260" x2="260" y1="140" y2="160" /><text x="25" y="175">i</text><line stroke="rgb(10%,10%,16%)" x1="20" x2="20" y1="160" y2="180" /><line stroke="rgb(10%,10%,16%)" x1="40" x2="40" y1="160" y2="180" /><line stroke="rgb(10%,10%,16%)" x1="20" x2="40" y1="180" y2="180" /><text x="45" y="175">h</text><text x="65" y="175">g</text><line stroke="rgb(10%,10%,16%)" x1="60" x2="80" y1="180" y2="180" /><text x="85" y="175">f</text><line stroke="rgb(10%,10%,16%)" x1="80" x2="100" y1="180" y2="180" /><text x="105" y="175">e</text><text x="125" y="175">d</text><text x="145" y="175">c</text><line stroke="rgb(10%,10%,16%)" x1="160" x2="160" y1="160" y2="180" /><line stroke="rgb(10%,10%,16%)" x1="140" x2="160" y1="180" y2="180" /><text x="165" y="175">b</text><line stroke="rgb(10%,10%,16%)" x1="180" x2="180" y1="160" y2="180" /><line stroke="rgb(10%,10%,16%)" x1="160" x2="180" y1="180" y2="180" /><text x="185" y="175">a</text><line stroke="rgb(10%,10%,16%)" x1="200" x2="200" y1="160" y2="180" /><text x="205" y="175">9</text><text x="225" y="175">8</text><line stroke="rgb(10%,10%,16%)" x1="240" x2="240" y1="160" y2="180" /><text x="245" y="175">7</text><line stroke="rgb(10%,10%,16%)" x1="260" x2="260" y1="160" y2="180" /><text x="25" y="195">j</text><line stroke="rgb(10%,10%,16%)" x1="20" x2="20" y1="180" y2="200" /><line stroke="rgb(10%,10%,16%)" x1="20" x2="40" y1="200" y2="200" /><text x="45" y="195">i</text><line stroke="rgb(10%,10%,16%)" x1="60" x2="60" y1="180" y2="200" /><text x="65" y="195">h</text><line stroke="rgb(10%,10%,16%)" x1="60" x2="80" y1="200" y2="200" /><text x="85" y="195">g</text><text x="105" y="195">f</text><line stroke="rgb(10%,10%,16%)" x1="120" x2="120" y1="180" y2="200" /><text x="125" y="195">e</text><line stroke="rgb(10%,10%,16%)" x1="140" x2="140" y1="180" y2="200" /><text x="145" y="195">d</text><text x="165" y="195">c</text><line stroke="rgb(10%,10%,16%)" x1="160" x2="180" y1="200" y2="200" /><text x="185" y="195">b</text><line stroke="rgb(10%,10%,16%)" x1="200" x2="200" y1="180" y2="200" /><text x="205" y="195">a</text><line stroke="rgb(10%,10%,16%)" x1="220" x2="220" y1="180" y2="200" /><text x="225" y="195">9</text><line stroke="rgb(10%,10%,16%)" x1="240" x2="240" y1="180" y2="200" /><text x="245" y="195">8</text><line stroke="rgb(10%,10%,16%)" x1="260" x2="260" y1="180" y2="200" /><text x="25" y="215">k</text><line stroke="rgb(10%,10%,16%)" x1="20" x2="20" y1="200" y2="220" /><line stroke="rgb(10%,10%,16%)" x1="20" x2="40" y1="220" y2="220" /><text x="45" y="215">j</text><line stroke="rgb(10%,10%,16%)" x1="60" x2="60" y1="200" y2="220" /><text x="65" y="215">i</text><text x="85" y="215">h</text><line stroke="rgb(10%,10%,16%)" x1="100" x2="100" y1="200" y2="220" /><line stroke="rgb(10%,10%,16%)" x1="80" x2="100" y1="220" y2="220" /><text x="105" y="215">g</text><line stroke="rgb(10%,10%,16%)" x1="120" x2="120" y1="200" y2="220" /><text x="125" y="215">f</text><line stroke="rgb(10%,10%,16%)" x1="140" x2="140" y1="200" y2="220" /><line stroke="rgb(10%,10%,16%)" x1="120" x2="140" y1="220" y2="220" /><text x="145" y="215">e</text><line stroke="rgb(10%,10%,16%)" x1="160" x2="160" y1="200" y2="220" /><text x="165" y="215">d</text><text x="185" y="215">c</text><line stroke="rgb(10%,10%,16%)" x1="200" x2="200" y1="200" y2="220" /><line stroke="rgb(10%,10%,16%)" x1="180" x2="200" y1="220" y2="220" /><text x="205" y="215">b</text><line stroke="rgb(10%,10%,16%)" x1="220" x2="220" y1="200" y2="220" /><text x="225" y="215">a</text><line stroke="rgb(10%,10%,16%)" x1="240" x2="240" y1="200" y2="220" /><text x="245" y="215">9</text><line stroke="rgb(10%,10%,16%)" x1="260" x2="260" y1="200" y2="220" /><text x="25" y="235">l</text><line stroke="rgb(10%,10%,16%)" x1="20" x2="20" y1="220" y2="240" /><line stroke="rgb(10%,10%,16%)" x1="20" x2="40" y1="240" y2="240" /><text x="45" y="235">k</text><line stroke="rgb(10%,10%,16%)" x1="60" x2="60" y1="220" y2="240" /><text x="65" y="235">j</text><line stroke="rgb(10%,10%,16%)" x1="80" x2="80" y1="220" y2="240" /><text x="85" y="235">i</text><line stroke="rgb(10%,10%,16%)" x1="80" x2="100" y1="240" y2="240" /><text x="105" y="235">h</text><line stroke="rgb(10%,10%,16%)" x1="120" x2="120" y1="220" y2="240" /><line stroke="rgb(10%,10%,16%)" x1="100" x2="120" y1="240" y2="240" /><text x="125" y="235">g</text><text x="145" y="235">f</text><line stroke="rgb(10%,10%,16%)" x1="160" x2="160" y1="220" y2="240" /><line stroke="rgb(10%,10%,16%)" x1="140" x2="160" y1="240" y2="240" /><text x="165" y="235">e</text><line stroke="rgb(10%,10%,16%)" x1="180" x2="180" y1="220" y2="240" /><text x="185" y="235">d</text><text x="205" y="235">c</text><line stroke="rgb(10%,10%,16%)" x1="220" x2="220" y1="220" y2="240" /><line stroke="rgb(10%,10%,16%)" x1="200" x2="220" y1="240" y2="240" /><text x="225" y="235">b</text><line stroke="rgb(10%,10%,16%)" x1="240" x2="240" y1="220" y2="240" /><text x="245" y="235">a</text><line stroke="rgb(10%,10%,16%)" x1="260" x2="260" y1="220" y2="240" /><text x="25" y="255">m</text><line stroke="rgb(10%,10%,16%)" x1="20" x2="20" y1="240" y2="260" /><line stroke="rgb(10%,10%,16%)" x1="20" x2="40" y1="260" y2="260" /><text x="45" y="255">l</text><line stroke="rgb(10%,10%,16%)" x1="60" x2="60" y1="240" y2="260" /><line stroke="rgb(10%,10%,16%)" x1="40" x2="60" y1="260" y2="260" /><text x="65" y="255">k</text><line stroke="rgb(10%,10%,16%)" x1="80" x2="80" y1="240" y2="260" /><line stroke="rgb(10%,10%,16%)" x1="60" x2="80" y1="260" y2="260" /><text x="85" y="255">j</text><line stroke="rgb(10%,10%,16%)" x1="80" x2="100" y1="260" y2="260" /><text x="105" y="255">i</text><line stroke="rgb(10%,10%,16%)" x1="100" x2="120" y1="260" y2="260" /><text x="125" y="255">h</text><line stroke="rgb(10%,10%,16%)" x1="140" x2="140" y1="240" y2="260" /><line stroke="rgb(10%,10%,16%)" x1="120" x2="140" y1="260" y2="260" /><text x="145" y="255">g</text><line stroke="rgb(10%,10%,16%)" x1="140" x2="160" y1="260" y2="260" /><text x="165" y="255">f</text><line stroke="rgb(10%,10%,16%)" x1="180" x2="180" y1="240" y2="260" /><line stroke="rgb(10%,10%,16%)" x1="160" x2="180" y1="260" y2="260" /><text x="185" y="255">e</text><line stroke="rgb(10%,10%,16%)" x1="200" x2="200" y1="240" y2="260" /><line stroke="rgb(10%,10%,16%)" x1="180" x2="200" y1="260" y2="260" /><text x="205" y="255">d</text><line stroke="rgb(10%,10%,16%)" x1="200" x2="220" y1="260" y2="260" /><text x="225" y="255">c</text><line stroke="rgb(10%,10%,16%)" x1="240" x2="240" y1="240" y2="260" /><line stroke="rgb(10%,10%,16%)" x1="220" x2="240" y1="260" y2="260" /><text x="245" y="255">b</text><line stroke="rgb(10%,10%,16%)" x1="260" x2="260" y1="240" y2="260" /><line stroke="rgb(10%,10%,16%)" x1="240" x2="260" y1="260" y2="260" /></svg>