<?xml version="1.0" encoding="utf-8" ?>
<svg baseProfile="full" height="100%" version="1.1" width="100%" xmlns="http://www.w3.org/2000/svg" xmlns:ev="http://www.w3.org/2001/xml-events" xmlns:xlink="http://www.w3.org/1999/xlink"><defs /><text x="25" y="25"> </text><line stroke="rgb(10%,10%,16%)" x1="20" x2="30" y1="20" y2="20" /><line stroke="rgb(10%,10%,16%)" x1="20" x2="20" y1="20" y2="30" /><line stroke="rgb(10%,10%,16%)" x1="20" x2="30" y1="30" y2="30" /><text x="35" y="25"> </text><line stroke="rgb(10%,10%,16%)" x1="30" x2="40" y1="20" y2="20" /><text x="45" y="25"> </text><line stroke="rgb(10%,10%,16%)" x1="40" x2="50" y1="20" y2="20" /><text x="55" y="25"> </text><line stroke="rgb(10%,10%,16%)" x1="50" x2="60" y1="20" y2="20" /><line stroke="rgb(10%,10%,16%)" x1="50" x2="60" y1="30" y2="30" /><text x="65" y="25"> </text><line stroke="rgb(10%,10%,16%)" x1="60" x2="70" y1="20" y2="20" /><line stroke="rgb(10%,10%,16%)" x1="60" x2="70" y1="30" y2="30" /><text x="75" y="25"> </text><line stroke="rgb(10%,10%,16%)" x1="70" x2="80" y1="20" y2="20" /><line stroke="rgb(10%,10%,16%)" x1="70" x2="80" y1="30" y2="30" /><text x="85" y="25"> </text><line stroke="rgb(10%,10%,16%)" x1="80" x2="90" y1="20" y2="20" /><text x="95" y="25"> </text><line stroke="rgb(10%,10%,16%)" x1="90" x2="100" y1="20" y2="20" /><text x="105" y="25"> </text><line stroke="rgb(10%,10%,16%)" x1="100" x2="110" y1="20" y2="20" /><text x="115" y="25"> </text><line stroke="rgb(10%,10%,16%)" x1="110" x2="120" y1="20" y2="20" /><line stroke="rgb(10%,10%,16%)" x1="110" x2="120" y1="30" y2="30" /><text x="125" y="25"> </text><line stroke="rgb(10%,10%,16%)" x1="120" x2="130" y1="20" y2="20" /><text x="135" y="25"> </text><line stroke="rgb(10%,10%,16%)" x1="130" x2="140" y1="20" y2="20" /><line stroke="rgb(10%,10%,16%)" x1="130" x2="140" y1="30" y2="30" /><text x="145" y="25"> </text><line stroke="rgb(10%,10%,16%)" x1="140" x2="150" y1="20" y2="20" /><text x="155" y="25"> </text><line stroke="rgb(10%,10%,16%)" x1="150" x2="160" y1="20" y2="20" /><line stroke="rgb(10%,10%,16%)" x1="150" x2="160" y1="30" y2="30" /><text x="165" y="25"> </text><line stroke="rgb(10%,10%,16%)" x1="160" x2="170" y1="20" y2="20" /><line stroke="rgb(10%,10%,16%)" x1="170" x2="170" y1="20" y2="30" /><text x="25" y="35"> </text><line stroke="rgb(10%,10%,16%)" x1="20" x2="20" y1="30" y2="40" /><line stroke="rgb(10%,10%,16%)" x1="20" x2="30" y1="40" y2="40" /><text x="35" y="35"> </text><line stroke="rgb(10%,10%,16%)" x1="40" x2="40" y1="30" y2="40" /><line stroke="rgb(10%,10%,16%)" x1="30" x2="40" y1="40" y2="40" /><text x="45" y="35"> </text><text x="55" y="35"> </text><line stroke="rgb(10%,10%,16%)" x1="50" x2="60" y1="40" y2="40" /><text x="65" y="35"> </text><text x="75" y="35"> </text><line stroke="rgb(10%,10%,16%)" x1="80" x2="80" y1="30" y2="40" /><line stroke="rgb(10%,10%,16%)" x1="70" x2="80" y1="40" y2="40" /><text x="85" y="35"> </text><line stroke="rgb(10%,10%,16%)" x1="90" x2="90" y1="30" y2="40" /><line stroke="rgb(10%,10%,16%)" x1="80" x2="90" y1="40" y2="40" /><text x="95" y="35"> </text><line stroke="rgb(10%,10%,16%)" x1="100" x2="100" y1="30" y2="40" /><text x="105" y="35"> </text><line stroke="rgb(10%,10%,16%)" x1="100" x2="110" y1="40" y2="40" /><text x="115" y="35"> </text><line stroke="rgb(10%,10%,16%)" x1="120" x2="120" y1="30" y2="40" /><line stroke="rgb(10%,10%,16%)" x1="110" x2="120" y1="40" y2="40" /><text x="125" y="35"> </text><text x="135" y="35"> </text><line stroke="rgb(10%,10%,16%)" x1="140" x2="140" y1="30" y2="40" /><line stroke="rgb(10%,10%,16%)" x1="130" x2="140" y1="40" y2="40" /><text x="145" y="35"> </text><line stroke="rgb(10%,10%,16%)" x1="140" x2="150" y1="40" y2="40" /><text x="155" y="35"> </text><line stroke="rgb(10%,10%,16%)" x1="160" x2="160" y1="30" y2="40" /><line stroke="rgb(10%,10%,16%)" x1="150" x2="160" y1="40" y2="40" /><text x="165" y="35"> </text><line stroke="rgb(10%,10%,16%)" x1="170" x2="170" y1="30" y2="40" /><text x="25" y="45"> </text><line stroke="rgb(10%,10%,16%)" x1="20" x2="20" y1="40" y2="50" /><text x="35" y="45"> </text><text x="45" y="45"> </text><text x="55" y="45"> </text><line stroke="rgb(10%,10%,16%)" x1="60" x2="60" y1="40" y2="50" /><text x="65" y="45"> </text><line stroke="rgb(10%,10%,16%)" x1="60" x2="70" y1="50" y2="50" /><text x="75" y="45"> </text><text x="85" y="45"> </text><line stroke="rgb(10%,10%,16%)" x1="90" x2="90" y1="40" y2="50" /><text x="95" y="45"> </text><line stroke="rgb(10%,10%,16%)" x1="90" x2="100" y1="50" y2="50" /><text x="105" y="45"> </text><text x="115" y="45"> </text><line stroke="rgb(10%,10%,16%)" x1="120" x2="120" y1="40" y2="50" /><line stroke="rgb(10%,10%,16%)" x1="110" x2="120" y1="50" y2="50" /><text x="125" y="45"> </text><line stroke="rgb(10%,10%,16%)" x1="130" x2="130" y1="40" y2="50" /><text x="135" y="45"> </text><text x="145" y="45"> </text><text x="155" y="45"> </text><line stroke="rgb(10%,10%,16%)" x1="150" x2="160" y1="50" y2="50" /><text x="165" y="45"> </text><line stroke="rgb(10%,10%,16%)" x1="170" x2="170" y1="40" y2="50" /><text x="25" y="55"> </text><line stroke="rgb(10%,10%,16%)" x1="20" x2="20" y1="50" y2="60" /><line stroke="rgb(10%,10%,16%)" x1="30" x2="30" y1="50" y2="60" /><text x="35" y="55"> </text><line stroke="rgb(10%,10%,16%)" x1="40" x2="40" y1="50" y2="60" /><text x="45" y="55"> </text><line stroke="rgb(10%,10%,16%)" x1="50" x2="50" y1="50" y2="60" /><text x="55" y="55"> </text><line stroke="rgb(10%,10%,16%)" x1="50" x2="60" y1="60" y2="60" /><text x="65" y="55"> </text><line stroke="rgb(10%,10%,16%)" x1="70" x2="70" y1="50" y2="60" /><text x="75" y="55"> </text><line stroke="rgb(10%,10%,16%)" x1="80" x2="80" y1="50" y2="60" /><line stroke="rgb(10%,10%,16%)" x1="70" x2="80" y1="60" y2="60" /><text x="85" y="55"> </text><line stroke="rgb(10%,10%,16%)" x1="90" x2="90" y1="50" y2="60" /><line stroke="rgb(10%,10%,16%)" x1="80" x2="90" y1="60" y2="60" /><text x="95" y="55"> </text><text x="105" y="55"> </text><line stroke="rgb(10%,10%,16%)" x1="100" x2="110" y1="60" y2="60" /><text x="115" y="55"> </text><line stroke="rgb(10%,10%,16%)" x1="120" x2="120" y1="50" y2="60" /><text x="125" y="55"> </text><line stroke="rgb(10%,10%,16%)" x1="130" x2="130" y1="50" y2="60" /><line stroke="rgb(10%,10%,16%)" x1="120" x2="130" y1="60" y2="60" /><text x="135" y="55"> </text><line stroke="rgb(10%,10%,16%)" x1="140" x2="140" y1="50" y2="60" /><line stroke="rgb(10%,10%,16%)" x1="130" x2="140" y1="60" y2="60" /><text x="145" y="55"> </text><line stroke="rgb(10%,10%,16%)" x1="150" x2="150" y1="50" y2="60" /><text x="155" y="55"> </text><line stroke="rgb(10%,10%,16%)" x1="150" x2="160" y1="60" y2="60" /><text x="165" y="55"> </text><line stroke="rgb(10%,10%,16%)" x1="170" x2="170" y1="50" y2="60" /><line stroke="rgb(10%,10%,16%)" x1="160" x2="170" y1="60" y2="60" /><text x="25" y="65"> </text><line stroke="rgb(10%,10%,16%)" x1="20" x2="20" y1="60" y2="70" /><line stroke="rgb(10%,10%,16%)" x1="30" x2="30" y1="60" y2="70" /><line stroke="rgb(10%,10%,16%)" x1="20" x2="30" y1="70" y2="70" /><text x="35" y="65"> </text><line stroke="rgb(10%,10%,16%)" x1="40" x2="40" y1="60" y2="70" /><line stroke="rgb(10%,10%,16%)" x1="30" x2="40" y1="70" y2="70" /><text x="45" y="65"> </text><line stroke="rgb(10%,10%,16%)" x1="50" x2="50" y1="60" y2="70" /><text x="55" y="65"> </text><text x="65" y="65"> </text><line stroke="rgb(10%,10%,16%)" x1="70" x2="70" y1="60" y2="70" /><text x="75" y="65"> </text><line stroke="rgb(10%,10%,16%)" x1="70" x2="80" y1="70" y2="70" /><text x="85" y="65"> </text><line stroke="rgb(10%,10%,16%)" x1="80" x2="90" y1="70" y2="70" /><text x="95" y="65"> </text><line stroke="rgb(10%,10%,16%)" x1="90" x2="100" y1="70" y2="70" /><text x="105" y="65"> </text><line stroke="rgb(10%,10%,16%)" x1="110" x2="110" y1="60" y2="70" /><line stroke="rgb(10%,10%,16%)" x1="100" x2="110" y1="70" y2="70" /><text x="115" y="65"> </text><line stroke="rgb(10%,10%,16%)" x1="120" x2="120" y1="60" y2="70" /><line stroke="rgb(10%,10%,16%)" x1="110" x2="120" y1="70" y2="70" /><text x="125" y="65"> </text><line stroke="rgb(10%,10%,16%)" x1="120" x2="130" y1="70" y2="70" /><text x="135" y="65"> </text><text x="145" y="65"> </text><line stroke="rgb(10%,10%,16%)" x1="140" x2="150" y1="70" y2="70" /><text x="155" y="65"> </text><text x="165" y="65"> </text><line stroke="rgb(10%,10%,16%)" x1="170" x2="170" y1="60" y2="70" /><line stroke="rgb(10%,10%,16%)" x1="160" x2="170" y1="70" y2="70" /><text x="25" y="75"> </text><line stroke="rgb(10%,10%,16%)" x1="20" x2="20" y1="70" y2="80" /><line stroke="rgb(10%,10%,16%)" x1="20" x2="30" y1="80" y2="80" /><text x="35" y="75"> </text><line stroke="rgb(10%,10%,16%)" x1="30" x2="40" y1="80" y2="80" /><text x="45" y="75"> </text><line stroke="rgb(10%,10%,16%)" x1="50" x2="50" y1="70" y2="80" /><line stroke="rgb(10%,10%,16%)" x1="40" x2="50" y1="80" y2="80" /><text x="55" y="75"> </text><line stroke="rgb(10%,10%,16%)" x1="60" x2="60" y1="70" y2="80" /><text x="65" y="75"> </text><text x="75" y="75"> </text><text x="85" y="75"> </text><text x="95" y="75"> </text><text x="105" y="75"> </text><line stroke="rgb(10%,10%,16%)" x1="100" x2="110" y1="80" y2="80" /><text x="115" y="75"> </text><text x="125" y="75"> </text><line stroke="rgb(10%,10%,16%)" x1="130" x2="130" y1="70" y2="80" /><text x="135" y="75"> </text><line stroke="rgb(10%,10%,16%)" x1="140" x2="140" y1="70" y2="80" /><text x="145" y="75"> </text><text x="155" y="75"> </text><line stroke="rgb(10%,10%,16%)" x1="150" x2="160" y1="80" y2="80" /><text x="165" y="75"> </text><line stroke="rgb(10%,10%,16%)" x1="170" x2="170" y1="70" y2="80" /><text x="25" y="85"> </text><line stroke="rgb(10%,10%,16%)" x1="20" x2="20" y1="80" y2="90" /><text x="35" y="85"> </text><text x="45" y="85"> </text><text x="55" y="85"> </text><line stroke="rgb(10%,10%,16%)" x1="60" x2="60" y1="80" y2="90" /><text x="65" y="85"> </text><line stroke="rgb(10%,10%,16%)" x1="70" x2="70" y1="80" y2="90" /><line stroke="rgb(10%,10%,16%)" x1="60" x2="70" y1="90" y2="90" /><text x="75" y="85"> </text><line stroke="rgb(10%,10%,16%)" x1="80" x2="80" y1="80" y2="90" /><text x="85" y="85"> </text><line stroke="rgb(10%,10%,16%)" x1="90" x2="90" y1="80" y2="90" /><line stroke="rgb(10%,10%,16%)" x1="80" x2="90" y1="90" y2="90" /><text x="95" y="85"> </text><text x="105" y="85"> </text><line stroke="rgb(10%,10%,16%)" x1="110" x2="110" y1="80" y2="90" /><line stroke="rgb(10%,10%,16%)" x1="100" x2="110" y1="90" y2="90" /><text x="115" y="85"> </text><line stroke="rgb(10%,10%,16%)" x1="120" x2="120" y1="80" y2="90" /><line stroke="rgb(10%,10%,16%)" x1="110" x2="120" y1="90" y2="90" /><text x="125" y="85"> </text><line stroke="rgb(10%,10%,16%)" x1="130" x2="130" y1="80" y2="90" /><line stroke="rgb(10%,10%,16%)" x1="120" x2="130" y1="90" y2="90" /><text x="135" y="85"> </text><line stroke="rgb(10%,10%,16%)" x1="140" x2="140" y1="80" y2="90" /><text x="145" y="85"> </text><line stroke="rgb(10%,10%,16%)" x1="150" x2="150" y1="80" y2="90" /><line stroke="rgb(10%,10%,16%)" x1="140" x2="150" y1="90" y2="90" /><text x="155" y="85"> </text><line stroke="rgb(10%,10%,16%)" x1="150" x2="160" y1="90" y2="90" /><text x="165" y="85"> </text><line stroke="rgb(10%,10%,16%)" x1="170" x2="170" y1="80" y2="90" /><text x="25" y="95"> </text><line stroke="rgb(10%,10%,16%)" x1="20" x2="20" y1="90" y2="100" /><line stroke="rgb(10%,10%,16%)" x1="30" x2="30" y1="90" y2="100" /><line stroke="rgb(10%,10%,16%)" x1="20" x2="30" y1="100" y2="100" /><text x="35" y="95"> </text><line stroke="rgb(10%,10%,16%)" x1="40" x2="40" y1="90" y2="100" /><text x="45" y="95"> </text><line stroke="rgb(10%,10%,16%)" x1="50" x2="50" y1="90" y2="100" /><line stroke="rgb(10%,10%,16%)" x1="40" x2="50" y1="100" y2="100" /><text x="55" y="95"> </text><line stroke="rgb(10%,10%,16%)" x1="60" x2="60" y1="90" y2="100" /><text x="65" y="95"> </text><line stroke="rgb(10%,10%,16%)" x1="60" x2="70" y1="100" y2="100" /><text x="75" y="95"> </text><line stroke="rgb(10%,10%,16%)" x1="80" x2="80" y1="90" y2="100" /><text x="85" y="95"> </text><text x="95" y="95"> </text><text x="105" y="95"> </text><line stroke="rgb(10%,10%,16%)" x1="100" x2="110" y1="100" y2="100" /><text x="115" y="95"> </text><line stroke="rgb(10%,10%,16%)" x1="120" x2="120" y1="90" y2="100" /><text x="125" y="95"> </text><text x="135" y="95"> </text><line stroke="rgb(10%,10%,16%)" x1="130" x2="140" y1="100" y2="100" /><text x="145" y="95"> </text><line stroke="rgb(10%,10%,16%)" x1="150" x2="150" y1="90" y2="100" /><text x="155" y="95"> </text><text x="165" y="95"> </text><line stroke="rgb(10%,10%,16%)" x1="170" x2="170" y1="90" y2="100" /><text x="25" y="105"> </text><line stroke="rgb(10%,10%,16%)" x1="20" x2="20" y1="100" y2="110" /><text x="35" y="105"> </text><text x="45" y="105"> </text><line stroke="rgb(10%,10%,16%)" x1="50" x2="50" y1="100" y2="110" /><text x="55" y="105"> </text><line stroke="rgb(10%,10%,16%)" x1="60" x2="60" y1="100" y2="110" /><text x="65" y="105"> </text><text x="75" y="105"> </text><line stroke="rgb(10%,10%,16%)" x1="80" x2="80" y1="100" y2="110" /><line stroke="rgb(10%,10%,16%)" x1="70" x2="80" y1="110" y2="110" /><text x="85" y="105"> </text><line stroke="rgb(10%,10%,16%)" x1="90" x2="90" y1="100" y2="110" /><line stroke="rgb(10%,10%,16%)" x1="80" x2="90" y1="110" y2="110" /><text x="95" y="105"> </text><text x="105" y="105"> </text><line stroke="rgb(10%,10%,16%)" x1="110" x2="110" y1="100" y2="110" /><text x="115" y="105"> </text><line stroke="rgb(10%,10%,16%)" x1="120" x2="120" y1="100" y2="110" /><text x="125" y="105"> </text><line stroke="rgb(10%,10%,16%)" x1="130" x2="130" y1="100" y2="110" /><line stroke="rgb(10%,10%,16%)" x1="120" x2="130" y1="110" y2="110" /><text x="135" y="105"> </text><line stroke="rgb(10%,10%,16%)" x1="130" x2="140" y1="110" y2="110" /><text x="145" y="105"> </text><line stroke="rgb(10%,10%,16%)" x1="150" x2="150" y1="100" y2="110" /><line stroke="rgb(10%,10%,16%)" x1="140" x2="150" y1="110" y2="110" /><text x="155" y="105"> </text><line stroke="rgb(10%,10%,16%)" x1="160" x2="160" y1="100" y2="110" /><text x="165" y="105"> </text><line stroke="rgb(10%,10%,16%)" x1="170" x2="170" y1="100" y2="110" /><line stroke="rgb(10%,10%,16%)" x1="160" x2="170" y1="110" y2="110" /><text x="25" y="115"> </text><line stroke="rgb(10%,10%,16%)" x1="20" x2="20" y1="110" y2="120" /><line stroke="rgb(10%,10%,16%)" x1="30" x2="30" y1="110" y2="120" /><text x="35" y="115"> </text><line stroke="rgb(10%,10%,16%)" x1="40" x2="40" y1="110" y2="120" /><text x="45" y="115"> </text><line stroke="rgb(10%,10%,16%)" x1="50" x2="50" y1="110" y2="120" /><line stroke="rgb(10%,10%,16%)" x1="40" x2="50" y1="120" y2="120" /><text x="55" y="115"> </text><line stroke="rgb(10%,10%,16%)" x1="60" x2="60" y1="110" y2="120" /><text x="65" y="115"> </text><text x="75" y="115"> </text><line stroke="rgb(10%,10%,16%)" x1="80" x2="80" y1="110" y2="120" /><line stroke="rgb(10%,10%,16%)" x1="70" x2="80" y1="120" y2="120" /><text x="85" y="115"> </text><line stroke="rgb(10%,10%,16%)" x1="80" x2="90" y1="120" y2="120" /><text x="95" y="115"> </text><line stroke="rgb(10%,10%,16%)" x1="100" x2="100" y1="110" y2="120" /><text x="105" y="115"> </text><line stroke="rgb(10%,10%,16%)" x1="110" x2="110" y1="110" y2="120" /><text x="115" y="115"> </text><line stroke="rgb(10%,10%,16%)" x1="120" x2="120" y1="110" y2="120" /><line stroke="rgb(10%,10%,16%)" x1="110" x2="120" y1="120" y2="120" /><text x="125" y="115"> </text><text x="135" y="115"> </text><line stroke="rgb(10%,10%,16%)" x1="130" x2="140" y1="120" y2="120" /><text x="145" y="115"> </text><text x="155" y="115"> </text><line stroke="rgb(10%,10%,16%)" x1="150" x2="160" y1="120" y2="120" /><text x="165" y="115"> </text><line stroke="rgb(10%,10%,16%)" x1="170" x2="170" y1="110" y2="120" /><text x="25" y="125"> </text><line stroke="rgb(10%,10%,16%)" x1="20" x2="20" y1="120" y2="130" /><line stroke="rgb(10%,10%,16%)" x1="30" x2="30" y1="120" y2="130" /><line stroke="rgb(10%,10%,16%)" x1="20" x2="30" y1="130" y2="130" /><text x="35" y="125"> </text><line stroke="rgb(10%,10%,16%)" x1="40" x2="40" y1="120" y2="130" /><text x="45" y="125"> </text><line stroke="rgb(10%,10%,16%)" x1="40" x2="50" y1="130" y2="130" /><text x="55" y="125"> </text><line stroke="rgb(10%,10%,16%)" x1="60" x2="60" y1="120" y2="130" /><text x="65" y="125"> </text><line stroke="rgb(10%,10%,16%)" x1="70" x2="70" y1="120" y2="130" /><text x="75" y="125"> </text><text x="85" y="125"> </text><line stroke="rgb(10%,10%,16%)" x1="80" x2="90" y1="130" y2="130" /><text x="95" y="125"> </text><line stroke="rgb(10%,10%,16%)" x1="100" x2="100" y1="120" y2="130" /><line stroke="rgb(10%,10%,16%)" x1="90" x2="100" y1="130" y2="130" /><text x="105" y="125"> </text><text x="115" y="125"> </text><line stroke="rgb(10%,10%,16%)" x1="120" x2="120" y1="120" y2="130" /><line stroke="rgb(10%,10%,16%)" x1="110" x2="120" y1="130" y2="130" /><text x="125" y="125"> </text><text x="135" y="125"> </text><line stroke="rgb(10%,10%,16%)" x1="140" x2="140" y1="120" y2="130" /><line stroke="rgb(10%,10%,16%)" x1="130" x2="140" y1="130" y2="130" /><text x="145" y="125"> </text><text x="155" y="125"> </text><line stroke="rgb(10%,10%,16%)" x1="160" x2="160" y1="120" y2="130" /><line stroke="rgb(10%,10%,16%)" x1="150" x2="160" y1="130" y2="130" /><text x="165" y="125"> </text><line stroke="rgb(10%,10%,16%)" x1="170" x2="170" y1="120" y2="130" /><text x="25" y="135"> </text><line stroke="rgb(10%,10%,16%)" x1="20" x2="20" y1="130" y2="140" /><text x="35" y="135"> </text><line stroke="rgb(10%,10%,16%)" x1="40" x2="40" y1="130" y2="140" /><line stroke="rgb(10%,10%,16%)" x1="30" x2="40" y1="140" y2="140" /><text x="45" y="135"> </text><line stroke="rgb(10%,10%,16%)" x1="40" x2="50" y1="140" y2="140" /><text x="55" y="135"> </text><line stroke="rgb(10%,10%,16%)" x1="60" x2="60" y1="130" y2="140" /><text x="65" y="135"> </text><line stroke="rgb(10%,10%,16%)" x1="70" x2="70" y1="130" y2="140" /><text x="75" y="135"> </text><text x="85" y="135"> </text><text x="95" y="135"> </text><line stroke="rgb(10%,10%,16%)" x1="100" x2="100" y1="130" y2="140" /><line stroke="rgb(10%,10%,16%)" x1="90" x2="100" y1="140" y2="140" /><text x="105" y="135"> </text><line stroke="rgb(10%,10%,16%)" x1="110" x2="110" y1="130" y2="140" /><line stroke="rgb(10%,10%,16%)" x1="100" x2="110" y1="140" y2="140" /><text x="115" y="135"> </text><line stroke="rgb(10%,10%,16%)" x1="110" x2="120" y1="140" y2="140" /><text x="125" y="135"> </text><line stroke="rgb(10%,10%,16%)" x1="130" x2="130" y1="130" y2="140" /><text x="135" y="135"> </text><text x="145" y="135"> </text><line stroke="rgb(10%,10%,16%)" x1="140" x2="150" y1="140" y2="140" /><text x="155" y="135"> </text><line stroke="rgb(10%,10%,16%)" x1="160" x2="160" y1="130" y2="140" /><text x="165" y="135"> </text><line stroke="rgb(10%,10%,16%)" x1="170" x2="170" y1="130" y2="140" /><text x="25" y="145"> </text><line stroke="rgb(10%,10%,16%)" x1="20" x2="20" y1="140" y2="150" /><text x="35" y="145"> </text><line stroke="rgb(10%,10%,16%)" x1="40" x2="40" y1="140" y2="150" /><text x="45" y="145"> </text><text x="55" y="145"> </text><line stroke="rgb(10%,10%,16%)" x1="60" x2="60" y1="140" y2="150" /><text x="65" y="145"> </text><line stroke="rgb(10%,10%,16%)" x1="70" x2="70" y1="140" y2="150" /><text x="75" y="145"> </text><line stroke="rgb(10%,10%,16%)" x1="80" x2="80" y1="140" y2="150" /><text x="85" y="145"> </text><text x="95" y="145"> </text><text x="105" y="145"> </text><text x="115" y="145"> </text><line stroke="rgb(10%,10%,16%)" x1="120" x2="120" y1="140" y2="150" /><text x="125" y="145"> </text><line stroke="rgb(10%,10%,16%)" x1="130" x2="130" y1="140" y2="150" /><line stroke="rgb(10%,10%,16%)" x1="120" x2="130" y1="150" y2="150" /><text x="135" y="145"> </text><line stroke="rgb(10%,10%,16%)" x1="130" x2="140" y1="150" y2="150" /><text x="145" y="145"> </text><line stroke="rgb(10%,10%,16%)" x1="150" x2="150" y1="140" y2="150" /><text x="155" y="145"> </text><line stroke="rgb(10%,10%,16%)" x1="160" x2="160" y1="140" y2="150" /><text x="165" y="145"> </text><line stroke="rgb(10%,10%,16%)" x1="170" x2="170" y1="140" y2="150" /><text x="25" y="155"> </text><line stroke="rgb(10%,10%,16%)" x1="20" x2="20" y1="150" y2="160" /><line stroke="rgb(10%,10%,16%)" x1="30" x2="30" y1="150" y2="160" /><text x="35" y="155"> </text><line stroke="rgb(10%,10%,16%)" x1="40" x2="40" y1="150" y2="160" /><text x="45" y="155"> </text><line stroke="rgb(10%,10%,16%)" x1="50" x2="50" y1="150" y2="160" /><line stroke="rgb(10%,10%,16%)" x1="40" x2="50" y1="160" y2="160" /><text x="55" y="155"> </text><line stroke="rgb(10%,10%,16%)" x1="60" x2="60" y1="150" y2="160" /><line stroke="rgb(10%,10%,16%)" x1="50" x2="60" y1="160" y2="160" /><text x="65" y="155"> </text><line stroke="rgb(10%,10%,16%)" x1="70" x2="70" y1="150" y2="160" /><line stroke="rgb(10%,10%,16%)" x1="60" x2="70" y1="160" y2="160" /><text x="75" y="155"> </text><line stroke="rgb(10%,10%,16%)" x1="80" x2="80" y1="150" y2="160" /><line stroke="rgb(10%,10%,16%)" x1="70" x2="80" y1="160" y2="160" /><text x="85" y="155"> </text><line stroke="rgb(10%,10%,16%)" x1="90" x2="90" y1="150" y2="160" /><text x="95" y="155"> </text><line stroke="rgb(10%,10%,16%)" x1="100" x2="100" y1="150" y2="160" /><text x="105" y="155"> </text><line stroke="rgb(10%,10%,16%)" x1="110" x2="110" y1="150" y2="160" /><line stroke="rgb(10%,10%,16%)" x1="100" x2="110" y1="160" y2="160" /><text x="115" y="155"> </text><line stroke="rgb(10%,10%,16%)" x1="120" x2="120" y1="150" y2="160" /><text x="125" y="155"> </text><line stroke="rgb(10%,10%,16%)" x1="120" x2="130" y1="160" y2="160" /><text x="135" y="155"> </text><text x="145" y="155"> </text><line stroke="rgb(10%,10%,16%)" x1="150" x2="150" y1="150" y2="160" /><text x="155" y="155"> </text><line stroke="rgb(10%,10%,16%)" x1="160" x2="160" y1="150" y2="160" /><text x="165" y="155"> </text><line stroke="rgb(10%,10%,16%)" x1="170" x2="170" y1="150" y2="160" /><line stroke="rgb(10%,10%,16%)" x1="160" x2="170" y1="160" y2="160" /><text x="25" y="165"> </text><line stroke="rgb(10%,10%,16%)" x1="20" x2="20" y1="160" y2="170" /><line stroke="rgb(10%,10%,16%)" x1="30" x2="30" y1="160" y2="170" /><line stroke="rgb(10%,10%,16%)" x1="20" x2="30" y1="170" y2="170" /><text x="35" y="165"> </text><line stroke="rgb(10%,10%,16%)" x1="40" x2="40" y1="160" y2="170" /><line stroke="rgb(10%,10%,16%)" x1="30" x2="40" y1="170" y2="170" /><text x="45" y="165"> </text><line stroke="rgb(10%,10%,16%)" x1="40" x2="50" y1="170" y2="170" /><text x="55" y="165"> </text><line stroke="rgb(10%,10%,16%)" x1="50" x2="60" y1="170" y2="170" /><text x="65" y="165"> </text><line stroke="rgb(10%,10%,16%)" x1="60" x2="70" y1="170" y2="170" /><text x="75" y="165"> </text><line stroke="rgb(10%,10%,16%)" x1="70" x2="80" y1="170" y2="170" /><text x="85" y="165"> </text><line stroke="rgb(10%,10%,16%)" x1="90" x2="90" y1="160" y2="170" /><line stroke="rgb(10%,10%,16%)" x1="80" x2="90" y1="170" y2="170" /><text x="95" y="165"> </text><line stroke="rgb(10%,10%,16%)" x1="100" x2="100" y1="160" y2="170" /><line stroke="rgb(10%,10%,16%)" x1="90" x2="100" y1="170" y2="170" /><text x="105" y="165"> </text><line stroke="rgb(10%,10%,16%)" x1="100" x2="110" y1="170" y2="170" /><text x="115" y="165"> </text><line stroke="rgb(10%,10%,16%)" x1="120" x2="120" y1="160" y2="170" /><line stroke="rgb(10%,10%,16%)" x1="110" x2="120" y1="170" y2="170" /><text x="125" y="165"> </text><line stroke="rgb(10%,10%,16%)" x1="120" x2="130" y1="170" y2="170" /><text x="135" y="165"> </text><line stroke="rgb(10%,10%,16%)" x1="140" x2="140" y1="160" y2="170" /><line stroke="rgb(10%,10%,16%)" x1="130" x2="140" y1="170" y2="170" /><text x="145" y="165"> </text><line stroke="rgb(10%,10%,16%)" x1="150" x2="150" y1="160" y2="170" /><line stroke="rgb(10%,10%,16%)" x1="140" x2="150" y1="170" y2="170" /><text x="155" y="165"> </text><line stroke="rgb(10%,10%,16%)" x1="150" x2="160" y1="170" y2="170" /><text x="165" y="165"> </text><line stroke="rgb(10%,10%,16%)" x1="170" x2="170" y1="160" y2="170" /><line stroke="rgb(10%,10%,16%)" x1="160" x2="170" y1="170" y2="170" /></svg>